# xmcd
#
# Track frame offsets: 
#        150
#        19151
#        46728
#        69065
#        89856
#        115547
#        151201
#        177127
#        191662
#        210144
#        230911
#
# Disc length: 3426 seconds
#
# Revision: 1
# Processed by: cddbd v1.5.2PL0 Copyright (c) Steve Scherf et al.
# Submitted via: ExactAudioCopy v0.99pb4
#
DISCID=840d600b
DTITLE=Motor City Sheiks - Sensational Rhythms
DYEAR=2000
DGENRE=Blues
TTITLE0=Good Evening
TTITLE1=So What
TTITLE2=Walk With Me
TTITLE3=I Don't Play
TTITLE4=Rooster
TTITLE5=Tell Me Baby
TTITLE6=Something New
TTITLE7=I'm In Love
TTITLE8=Blue Dreams
TTITLE9=She Don't Tease
TTITLE10=Yes You
EXTD=
EXTT0=
EXTT1=
EXTT2=
EXTT3=
EXTT4=
EXTT5=
EXTT6=
EXTT7=
EXTT8=
EXTT9=
EXTT10=
PLAYORDER=
